<?xml version="1.0" encoding="utf-8"?>
<!-- Generator: Adobe Illustrator 23.0.1, SVG Export Plug-In . SVG Version: 6.00 Build 0)  -->
<svg version="1.1" id="Capa_1" xmlns="http://www.w3.org/2000/svg" xmlns:xlink="http://www.w3.org/1999/xlink" x="0px" y="0px"
	 viewBox="0 0 141.7 66" style="enable-background:new 0 0 141.7 66;" xml:space="preserve">
<style type="text/css">
	.st0{fill-rule:evenodd;clip-rule:evenodd;fill:#4F6084;}
</style>
<title>logo</title>
<path class="st0" d="M104.2,51.6c0-4.1-1.6-5.9-5.3-6h-4.8v20.5h10.1L104.2,51.6z"/>
<polygon class="st0" points="92.8,16.2 84,16.2 84,12.9 91.2,12.9 91.2,8 84,8 84,5.1 92.4,5.1 92.4,0 78.3,0 78.3,21.4 92.8,21.4 
	"/>
<polygon class="st0" points="62.8,43.1 68.5,43.1 68.5,28.6 73.5,28.6 73.5,23.4 57.7,23.4 57.7,28.6 62.8,28.6 "/>
<polygon class="st0" points="64,13.1 69.3,13.1 69.3,21.4 75,21.4 75,0 69.3,0 69.3,7.3 64,7.3 64,0 58.4,0 58.4,21.4 64,21.4 "/>
<path class="st0" d="M69.6,60.4c-0.5,0.6-1.3,0.9-2.1,0.8c-1,0.1-2-0.5-2.6-1.3c-0.7-1.2-1-2.6-0.9-4c-0.1-1.4,0.2-2.8,0.8-4
	c0.5-0.9,1.5-1.4,2.5-1.3c0.8,0,1.5,0.2,2.1,0.8s0.9,1.4,0.9,2.3h5.4c0-2.2-0.9-4.3-2.5-5.8c-1.7-1.4-3.8-2.1-6-2
	c-2.5-0.1-4.9,0.8-6.6,2.7c-1.7,2.1-2.6,4.8-2.4,7.5c-0.2,2.7,0.7,5.4,2.4,7.5c1.7,1.9,4.2,2.9,6.7,2.7c2.2,0.1,4.4-0.6,6-2.1
	c1.6-1.6,2.5-3.8,2.5-6h-5.4C70.5,58.9,70.2,59.7,69.6,60.4z"/>
<path class="st0" d="M45.6,46.1l-6.2,19.4H45l0.7-2.6h5.6l0.7,2.6h5.6l-6.2-19.4H45.6z M46.6,58.9l1.8-6.7l1.8,6.7H46.6z"/>
<polygon class="st0" points="84,57.8 91.2,57.8 91.2,53.3 84,53.3 84,50.7 92.4,50.7 92.4,46.1 78.3,46.1 78.3,65.5 92.8,65.5 
	92.8,60.8 84,60.8 "/>
<path class="st0" d="M123,45.6v20.5h18.8V45.6c0-26.1-23.1-43.9-42.4-45.2l-5.3,0.1v20.9h5.2C113.1,22.3,123,32.8,123,45.6z"/>
<path class="st0" d="M106.5,49.5V66h14.3V45.6c0.3-9.1-8.3-22.2-21.6-22.2H94V43h5.1C103.8,43.1,106.3,45.4,106.5,49.5z"/>
<polygon class="st0" points="81.1,35.5 86.4,35.5 86.4,43.1 92.1,43.1 92.1,23.4 86.4,23.4 86.4,30.1 81.1,30.1 81.1,23.4 
	75.4,23.4 75.4,43.1 81.1,43.1 "/>
<path class="st0" d="M28.5,43.7c2.5,0.1,5-0.9,6.7-2.8c1.7-2.1,2.6-4.8,2.4-7.6c0.2-2.8-0.7-5.5-2.5-7.6c-1.7-1.9-4.2-2.9-6.7-2.8
	c-2.5-0.1-5,0.9-6.7,2.8c-1.7,2.1-2.6,4.8-2.5,7.6c-0.2,2.8,0.7,5.5,2.5,7.6C23.4,42.8,25.9,43.8,28.5,43.7z M25.9,29.2
	c0.6-0.9,1.6-1.4,2.6-1.3c1-0.1,2,0.4,2.6,1.3c0.6,1.3,0.9,2.7,0.8,4.1c0.1,1.4-0.2,2.8-0.8,4.1c-0.6,0.9-1.6,1.4-2.6,1.3
	c-1,0.1-2.1-0.4-2.6-1.3c-0.7-1.3-1-2.7-0.9-4.1C24.9,31.9,25.2,30.5,25.9,29.2z"/>
<polygon class="st0" points="26.6,65.5 32.2,65.5 32.2,58.7 38.3,58.7 38.3,54 32.2,54 32.2,51 39.9,51 39.9,46.1 26.6,46.1 "/>
<path class="st0" d="M5.4,33.9c0-0.7,0-1.2,0-1.6c0-0.4-0.1-0.7-0.1-1.1c0.2,0.6,0.4,1.2,0.6,1.7C6,33.3,6.1,33.7,6.3,34l5,9.1h5.3
	V23.4h-5.4v9.3c0,0.6,0,1.1,0,1.5s0.1,0.8,0.1,1.1c-0.2-0.7-0.4-1.2-0.6-1.7c-0.1-0.4-0.3-0.8-0.5-1.1l-5-9.2h-5.4V43h5.4L5.4,33.9z
	"/>
<polygon class="st0" points="45.8,21.4 51.4,21.4 51.4,5.6 56.4,5.6 56.4,0 40.7,0 40.7,5.6 45.8,5.6 "/>
<path class="st0" d="M45.9,36.4h2.4c0.7-0.1,1.4,0.2,1.9,0.6c0.4,0.6,0.6,1.4,0.5,2.1v2c0,0.3,0,0.5,0.1,0.8s0.1,0.8,0.2,1.2h5.7
	v-0.8c-0.3,0-0.5-0.5-0.5-1.2c0-1.2,0,0,0-0.1l-0.1-2.7c0-1-0.2-2.1-0.7-3c-0.5-0.7-1.3-1.2-2.1-1.4c0.9-0.4,1.6-1,2.1-1.9
	s0.7-2,0.7-3c0-2-0.6-3.5-1.7-4.4c-1.1-0.9-3-1.3-5.7-1.3h-8.5V43h5.6L45.9,36.4z M45.9,28.2h2.4c0.7-0.1,1.4,0.1,2,0.4
	c0.4,0.4,0.6,0.9,0.5,1.5c0.1,0.5-0.1,1.1-0.5,1.4c-0.6,0.3-1.2,0.5-1.9,0.4h-2.6L45.9,28.2z"/>
</svg>
